# xmcd
#
# Track frame offsets:
#	150
#	11488
#	27622
#	41124
#	53661
#	65421
#	83628
#	99072
#	112181
#	125475
#	134746
#	148419
#
# Disc length: 2127 seconds
#
# Revision: 1
# Processed by: cddbd v1.5.2PL0 Copyright (c) Steve Scherf et al.
# Submitted via: audiograbber 1.83.01
#
DISCID=ad084d0c
DTITLE=Stephen Smyth - Cabin Home On The Hill
DYEAR=1900
DGENRE=Country
TTITLE0=Who's Gonna Dance With Sally Ann?
TTITLE1=I'll Give All My Love To You
TTITLE2=Tips Of My Fingers
TTITLE3=Away With Ye Johnny
TTITLE4=How Much Time Does It Take
TTITLE5=I Cant Stop Loving You
TTITLE6=Finding My Way Back Home
TTITLE7=Cabin Home On The Hill
TTITLE8=I Wanna Go To Heaven
TTITLE9=Here I Am, I'm Drunk Again
TTITLE10=Up To Feeling Down
TTITLE11=The Only Daddy That'll Walk The Line
EXTD=
EXTT0=
EXTT1=
EXTT2=
EXTT3=
EXTT4=
EXTT5=
EXTT6=
EXTT7=
EXTT8=
EXTT9=
EXTT10=
EXTT11=
PLAYORDER=
